<svg width="40" height="40" viewBox="0 0 40 40" fill="none" xmlns="http://www.w3.org/2000/svg">
<path fill-rule="evenodd" clip-rule="evenodd" d="M33.3788 20.2554C33.3242 20.2008 33.2647 20.155 33.2085 20.102C33.2639 20.0489 33.3242 20.0031 33.3788 19.9485L35.2573 18.07C38.9276 14.3998 38.9276 8.44852 35.2573 4.7783C31.5871 1.10808 25.6358 1.10808 21.9656 4.7783L20.0871 6.6568C20.0598 6.68412 20.0373 6.71465 20.01 6.74197C19.9827 6.71465 19.9602 6.68412 19.9329 6.6568L18.0544 4.7783C14.3841 1.10808 8.43288 1.10808 4.76266 4.7783C1.09244 8.44852 1.09244 14.3998 4.76266 18.07L6.64116 19.9485C6.6958 20.0031 6.75525 20.0489 6.81149 20.102C6.75606 20.155 6.6958 20.2008 6.64116 20.2554L4.76266 22.1339C1.09244 25.8041 1.09244 31.7554 4.76266 35.4256C8.43288 39.0958 14.3841 39.0958 18.0544 35.4256L19.9329 33.5471C19.9602 33.5198 19.9827 33.4893 20.01 33.462C20.0373 33.4893 20.0598 33.5198 20.0871 33.5471L21.9656 35.4256C25.6358 39.0958 31.5871 39.0958 35.2573 35.4256C38.9276 31.7554 38.9276 25.8041 35.2573 22.1339L33.3788 20.2554ZM20.01 25.2104C17.189 25.2104 14.9016 22.9237 14.9016 20.102C14.9016 17.2802 17.1882 14.9935 20.01 14.9935C22.8318 14.9935 25.1184 17.2802 25.1184 20.102C25.1184 22.9237 22.831 25.2104 20.01 25.2104Z" fill="#526E3E"/>
</svg>
